<mxfile host="app.diagrams.net" modified="2022-10-17T12:10:57.952Z" agent="5.0 (Windows NT 10.0; Win64; x64) AppleWebKit/537.36 (KHTML, like Gecko) Chrome/106.0.0.0 Safari/537.36" etag="ZcgR2BKNeSXb5KIZPFKd" version="20.4.1" type="github">
  <diagram id="C5RBs43oDa-KdzZeNtuy" name="Page-1">
    <mxGraphModel dx="1422" dy="762" grid="1" gridSize="10" guides="1" tooltips="1" connect="1" arrows="1" fold="1" page="1" pageScale="1" pageWidth="827" pageHeight="1169" math="0" shadow="0">
      <root>
        <mxCell id="WIyWlLk6GJQsqaUBKTNV-0" />
        <mxCell id="WIyWlLk6GJQsqaUBKTNV-1" parent="WIyWlLk6GJQsqaUBKTNV-0" />
        <mxCell id="nATuou7ZnoUtXIoafbIx-5" style="edgeStyle=orthogonalEdgeStyle;rounded=0;orthogonalLoop=1;jettySize=auto;html=1;entryX=1;entryY=0.5;entryDx=0;entryDy=0;" edge="1" parent="WIyWlLk6GJQsqaUBKTNV-1" source="nATuou7ZnoUtXIoafbIx-0" target="nATuou7ZnoUtXIoafbIx-1">
          <mxGeometry relative="1" as="geometry" />
        </mxCell>
        <mxCell id="nATuou7ZnoUtXIoafbIx-6" style="edgeStyle=orthogonalEdgeStyle;rounded=0;orthogonalLoop=1;jettySize=auto;html=1;entryX=0;entryY=0.5;entryDx=0;entryDy=0;" edge="1" parent="WIyWlLk6GJQsqaUBKTNV-1" source="nATuou7ZnoUtXIoafbIx-0" target="nATuou7ZnoUtXIoafbIx-2">
          <mxGeometry relative="1" as="geometry">
            <Array as="points">
              <mxPoint x="390" y="180" />
            </Array>
          </mxGeometry>
        </mxCell>
        <mxCell id="nATuou7ZnoUtXIoafbIx-8" style="edgeStyle=orthogonalEdgeStyle;rounded=0;orthogonalLoop=1;jettySize=auto;html=1;" edge="1" parent="WIyWlLk6GJQsqaUBKTNV-1" source="nATuou7ZnoUtXIoafbIx-0" target="nATuou7ZnoUtXIoafbIx-3">
          <mxGeometry relative="1" as="geometry">
            <Array as="points">
              <mxPoint x="390" y="310" />
            </Array>
          </mxGeometry>
        </mxCell>
        <mxCell id="nATuou7ZnoUtXIoafbIx-0" value="Django" style="rounded=0;whiteSpace=wrap;html=1;" vertex="1" parent="WIyWlLk6GJQsqaUBKTNV-1">
          <mxGeometry x="330" y="210" width="120" height="60" as="geometry" />
        </mxCell>
        <mxCell id="nATuou7ZnoUtXIoafbIx-14" style="edgeStyle=orthogonalEdgeStyle;rounded=0;orthogonalLoop=1;jettySize=auto;html=1;" edge="1" parent="WIyWlLk6GJQsqaUBKTNV-1" source="nATuou7ZnoUtXIoafbIx-1" target="nATuou7ZnoUtXIoafbIx-0">
          <mxGeometry relative="1" as="geometry" />
        </mxCell>
        <mxCell id="nATuou7ZnoUtXIoafbIx-1" value="Postgres/ MySQL" style="rounded=0;whiteSpace=wrap;html=1;" vertex="1" parent="WIyWlLk6GJQsqaUBKTNV-1">
          <mxGeometry x="110" y="210" width="120" height="60" as="geometry" />
        </mxCell>
        <mxCell id="nATuou7ZnoUtXIoafbIx-10" style="edgeStyle=orthogonalEdgeStyle;rounded=0;orthogonalLoop=1;jettySize=auto;html=1;" edge="1" parent="WIyWlLk6GJQsqaUBKTNV-1" source="nATuou7ZnoUtXIoafbIx-2" target="nATuou7ZnoUtXIoafbIx-9">
          <mxGeometry relative="1" as="geometry" />
        </mxCell>
        <mxCell id="nATuou7ZnoUtXIoafbIx-2" value="Pure JS" style="rounded=0;whiteSpace=wrap;html=1;" vertex="1" parent="WIyWlLk6GJQsqaUBKTNV-1">
          <mxGeometry x="510" y="150" width="120" height="60" as="geometry" />
        </mxCell>
        <mxCell id="nATuou7ZnoUtXIoafbIx-11" style="edgeStyle=orthogonalEdgeStyle;rounded=0;orthogonalLoop=1;jettySize=auto;html=1;entryX=0;entryY=0.5;entryDx=0;entryDy=0;" edge="1" parent="WIyWlLk6GJQsqaUBKTNV-1" source="nATuou7ZnoUtXIoafbIx-3" target="nATuou7ZnoUtXIoafbIx-9">
          <mxGeometry relative="1" as="geometry" />
        </mxCell>
        <mxCell id="nATuou7ZnoUtXIoafbIx-3" value="Tailwind/ Bootstrap" style="rounded=0;whiteSpace=wrap;html=1;" vertex="1" parent="WIyWlLk6GJQsqaUBKTNV-1">
          <mxGeometry x="510" y="280" width="120" height="60" as="geometry" />
        </mxCell>
        <mxCell id="nATuou7ZnoUtXIoafbIx-9" value="Heroku/ AWS" style="rounded=0;whiteSpace=wrap;html=1;" vertex="1" parent="WIyWlLk6GJQsqaUBKTNV-1">
          <mxGeometry x="700" y="210" width="120" height="60" as="geometry" />
        </mxCell>
        <mxCell id="nATuou7ZnoUtXIoafbIx-13" style="edgeStyle=orthogonalEdgeStyle;rounded=0;orthogonalLoop=1;jettySize=auto;html=1;" edge="1" parent="WIyWlLk6GJQsqaUBKTNV-1" source="nATuou7ZnoUtXIoafbIx-12" target="nATuou7ZnoUtXIoafbIx-0">
          <mxGeometry relative="1" as="geometry" />
        </mxCell>
        <mxCell id="nATuou7ZnoUtXIoafbIx-12" value="Machine Learning" style="rounded=0;whiteSpace=wrap;html=1;" vertex="1" parent="WIyWlLk6GJQsqaUBKTNV-1">
          <mxGeometry x="330" y="370" width="120" height="60" as="geometry" />
        </mxCell>
        <mxCell id="nATuou7ZnoUtXIoafbIx-19" style="edgeStyle=orthogonalEdgeStyle;rounded=0;orthogonalLoop=1;jettySize=auto;html=1;" edge="1" parent="WIyWlLk6GJQsqaUBKTNV-1" source="nATuou7ZnoUtXIoafbIx-15" target="nATuou7ZnoUtXIoafbIx-0">
          <mxGeometry relative="1" as="geometry" />
        </mxCell>
        <mxCell id="nATuou7ZnoUtXIoafbIx-20" style="edgeStyle=orthogonalEdgeStyle;rounded=0;orthogonalLoop=1;jettySize=auto;html=1;" edge="1" parent="WIyWlLk6GJQsqaUBKTNV-1" source="nATuou7ZnoUtXIoafbIx-15" target="nATuou7ZnoUtXIoafbIx-12">
          <mxGeometry relative="1" as="geometry" />
        </mxCell>
        <mxCell id="nATuou7ZnoUtXIoafbIx-15" value="Gold Data API" style="rounded=0;whiteSpace=wrap;html=1;" vertex="1" parent="WIyWlLk6GJQsqaUBKTNV-1">
          <mxGeometry x="200" y="300" width="120" height="60" as="geometry" />
        </mxCell>
        <mxCell id="nATuou7ZnoUtXIoafbIx-21" value="Saves user data" style="text;html=1;strokeColor=none;fillColor=none;align=center;verticalAlign=middle;whiteSpace=wrap;rounded=0;" vertex="1" parent="WIyWlLk6GJQsqaUBKTNV-1">
          <mxGeometry x="140" y="165" width="60" height="30" as="geometry" />
        </mxCell>
        <mxCell id="nATuou7ZnoUtXIoafbIx-22" value="Backend Framework" style="text;html=1;strokeColor=none;fillColor=none;align=center;verticalAlign=middle;whiteSpace=wrap;rounded=0;" vertex="1" parent="WIyWlLk6GJQsqaUBKTNV-1">
          <mxGeometry x="354" y="135" width="60" height="30" as="geometry" />
        </mxCell>
        <mxCell id="nATuou7ZnoUtXIoafbIx-23" value="Passes Data to Back End and for training Model" style="text;html=1;strokeColor=none;fillColor=none;align=center;verticalAlign=middle;whiteSpace=wrap;rounded=0;" vertex="1" parent="WIyWlLk6GJQsqaUBKTNV-1">
          <mxGeometry x="190" y="380" width="130" height="30" as="geometry" />
        </mxCell>
        <mxCell id="nATuou7ZnoUtXIoafbIx-24" value="Generate parameters based on training data as an API" style="text;html=1;strokeColor=none;fillColor=none;align=center;verticalAlign=middle;whiteSpace=wrap;rounded=0;" vertex="1" parent="WIyWlLk6GJQsqaUBKTNV-1">
          <mxGeometry x="325" y="460" width="130" height="30" as="geometry" />
        </mxCell>
        <mxCell id="nATuou7ZnoUtXIoafbIx-25" value="Frontend Framework" style="text;html=1;strokeColor=none;fillColor=none;align=center;verticalAlign=middle;whiteSpace=wrap;rounded=0;" vertex="1" parent="WIyWlLk6GJQsqaUBKTNV-1">
          <mxGeometry x="540" y="100" width="60" height="30" as="geometry" />
        </mxCell>
        <mxCell id="nATuou7ZnoUtXIoafbIx-26" value="Host Web App (Server and Deployment)" style="text;html=1;strokeColor=none;fillColor=none;align=center;verticalAlign=middle;whiteSpace=wrap;rounded=0;" vertex="1" parent="WIyWlLk6GJQsqaUBKTNV-1">
          <mxGeometry x="730" y="150" width="60" height="30" as="geometry" />
        </mxCell>
      </root>
    </mxGraphModel>
  </diagram>
</mxfile>
